<svg width="36" height="36" viewBox="0 0 36 36" fill="none" xmlns="http://www.w3.org/2000/svg">
<circle cx="18" cy="18" r="18" fill="#252424"/>
<path d="M16.25 10.75C16.9299 10.75 17.5945 10.9516 18.1598 11.3293C18.7251 11.707 19.1657 12.2439 19.4258 12.872C19.686 13.5001 19.7541 14.1913 19.6214 14.8581C19.4888 15.5249 19.1614 16.1374 18.6807 16.6182C18.1999 17.0989 17.5874 17.4263 16.9206 17.5589C16.2538 17.6916 15.5626 17.6235 14.9345 17.3633C14.3064 17.1032 13.7695 16.6626 13.3918 16.0973C13.0141 15.532 12.8125 14.8674 12.8125 14.1875C12.8125 13.2758 13.1747 12.4015 13.8193 11.7568C14.464 11.1122 15.3383 10.75 16.25 10.75ZM16.25 9.375C15.2982 9.375 14.3677 9.65725 13.5763 10.1861C12.7849 10.7149 12.1681 11.4665 11.8038 12.3458C11.4396 13.2252 11.3443 14.1928 11.53 15.1264C11.7157 16.0599 12.174 16.9174 12.847 17.5905C13.5201 18.2635 14.3776 18.7218 15.3111 18.9075C16.2447 19.0932 17.2123 18.9979 18.0917 18.6337C18.971 18.2694 19.7226 17.6526 20.2514 16.8612C20.7803 16.0698 21.0625 15.1393 21.0625 14.1875C21.0625 12.9111 20.5555 11.6871 19.653 10.7845C18.7504 9.88203 17.5264 9.375 16.25 9.375ZM23.125 28.625H21.75V25.1875C21.75 24.2758 21.3878 23.4015 20.7432 22.7568C20.0985 22.1122 19.2242 21.75 18.3125 21.75H14.1875C13.2758 21.75 12.4015 22.1122 11.7568 22.7568C11.1122 23.4015 10.75 24.2758 10.75 25.1875V28.625H9.375V25.1875C9.375 23.9111 9.88203 22.6871 10.7845 21.7845C11.6871 20.882 12.9111 20.375 14.1875 20.375H18.3125C19.5889 20.375 20.8129 20.882 21.7155 21.7845C22.618 22.6871 23.125 23.9111 23.125 25.1875V28.625ZM23.125 10.75H30V12.125H23.125V10.75ZM23.125 14.1875H30V15.5625H23.125V14.1875ZM23.125 17.625H27.9375V19H23.125V17.625Z" fill="white"/>
</svg>
