<svg width="36" height="36" viewBox="0 0 36 36" fill="none" xmlns="http://www.w3.org/2000/svg">
<path d="M36 18C36 27.9411 27.9411 36 18 36C8.05887 36 0 27.9411 0 18C0 8.05887 8.05887 0 18 0C27.9411 0 36 8.05887 36 18Z" fill="#252424"/>
<g clip-path="url(#clip0_256_18744)">
<path d="M15.5951 15.3278C17.9883 15.3278 19.9284 13.3877 19.9284 10.9945C19.9284 8.60123 17.9883 6.66113 15.5951 6.66113C13.2018 6.66113 11.2617 8.60123 11.2617 10.9945C11.2617 13.3877 13.2018 15.3278 15.5951 15.3278Z" fill="white"/>
<path d="M16.8733 27.9811C16.6347 27.745 16.4789 27.438 16.4295 27.106C16.38 26.7739 16.4394 26.4348 16.5989 26.1394L16.9817 25.4172L16.1945 25.1789C15.8734 25.0784 15.594 24.8759 15.3984 24.6022C15.2029 24.3285 15.1021 23.9985 15.1111 23.6622V22.1816C15.1105 21.8469 15.2176 21.5208 15.4166 21.2516C15.6156 20.9823 15.8959 20.7843 16.2161 20.6866L17.0033 20.4483L16.6278 19.7261C16.473 19.4347 16.4141 19.1019 16.4595 18.7752C16.5049 18.4484 16.6522 18.1442 16.8806 17.9061C16.3249 17.8332 15.7654 17.7947 15.205 17.7905C13.5499 17.7516 11.9066 18.0783 10.3923 18.7475C8.87799 19.4166 7.53 20.4116 6.44446 21.6616V27.2589C6.44446 27.4504 6.52055 27.6341 6.65599 27.7696C6.79143 27.905 6.97513 27.9811 7.16668 27.9811H16.8733Z" fill="white"/>
<path d="M29.3389 21.9434L27.8945 21.51C27.7944 21.1533 27.6538 20.8092 27.4756 20.4845L28.1978 19.1411C28.2257 19.0913 28.2359 19.0334 28.2267 18.977C28.2176 18.9206 28.1895 18.869 28.1473 18.8306L27.1 17.7761C27.0597 17.7369 27.0083 17.711 26.9527 17.7019C26.8972 17.6929 26.8402 17.7012 26.7895 17.7256L25.4534 18.4478C25.1245 18.2692 24.7785 18.124 24.4206 18.0145L23.98 16.57C23.9606 16.5168 23.9252 16.4708 23.8787 16.4385C23.8321 16.4062 23.7767 16.389 23.72 16.3895H22.2178C22.1615 16.391 22.107 16.4099 22.0618 16.4435C22.0166 16.4771 21.9828 16.5238 21.965 16.5773L21.5317 18.0217C21.1669 18.1278 20.8155 18.2757 20.4845 18.4623L19.1773 17.74C19.1264 17.713 19.0684 17.7027 19.0114 17.7104C18.9544 17.7182 18.9012 17.7437 18.8595 17.7834L17.7978 18.8234C17.756 18.8636 17.7285 18.9165 17.7193 18.9738C17.7102 19.0311 17.72 19.0899 17.7473 19.1411L18.4695 20.4556C18.276 20.7818 18.1186 21.1281 18 21.4884L16.5556 21.9289C16.501 21.9447 16.453 21.978 16.4191 22.0236C16.3852 22.0693 16.3672 22.1248 16.3678 22.1817V23.6623C16.3672 23.7191 16.3852 23.7746 16.4191 23.8203C16.453 23.866 16.501 23.8992 16.5556 23.915L18 24.3556C18.1083 24.7093 18.2536 25.0506 18.4334 25.3739L17.7111 26.7461C17.6839 26.7974 17.6741 26.8562 17.6832 26.9135C17.6924 26.9708 17.7199 27.0236 17.7617 27.0639L18.8378 28.1111C18.8795 28.1508 18.9327 28.1763 18.9897 28.1841C19.0467 28.1918 19.1048 28.1815 19.1556 28.1545L20.5061 27.4323C20.8275 27.6051 21.1665 27.7431 21.5173 27.8439L21.9506 29.3245C21.9688 29.3791 22.0036 29.4266 22.0503 29.4603C22.097 29.494 22.153 29.5122 22.2106 29.5122H23.6911C23.7475 29.5107 23.8019 29.4918 23.8471 29.4582C23.8924 29.4246 23.9262 29.3779 23.9439 29.3245L24.3773 27.8439C24.7238 27.7444 25.0581 27.6063 25.3739 27.4323L26.7389 28.1545C26.7897 28.1815 26.8478 28.1918 26.9048 28.1841C26.9618 28.1763 27.015 28.1508 27.0567 28.1111L28.1111 27.0639C28.1508 27.0222 28.1763 26.969 28.1841 26.912C28.1918 26.855 28.1815 26.797 28.1545 26.7461L27.4323 25.3884C27.605 25.072 27.743 24.7378 27.8439 24.3917L29.2884 23.9511C29.3426 23.9337 29.3903 23.9002 29.4251 23.855C29.46 23.8099 29.4803 23.7553 29.4834 23.6984V22.2034C29.4851 22.151 29.4726 22.0991 29.4472 22.0533C29.4217 22.0075 29.3843 21.9695 29.3389 21.9434ZM22.9617 25.3523C22.4843 25.3537 22.0172 25.2134 21.6196 24.9492C21.2219 24.685 20.9116 24.3088 20.728 23.8682C20.5443 23.4275 20.4955 22.9423 20.5877 22.4739C20.68 22.0055 20.9092 21.575 21.2462 21.2369C21.5833 20.8988 22.0131 20.6684 22.4812 20.5747C22.9493 20.481 23.4347 20.5284 23.8759 20.7107C24.3171 20.8931 24.6943 21.2023 24.9597 21.5991C25.225 21.996 25.3667 22.4626 25.3667 22.94C25.3667 23.5785 25.1135 24.191 24.6627 24.6432C24.2119 25.0954 23.6002 25.3503 22.9617 25.3523Z" fill="white"/>
</g>
<defs>
<clipPath id="clip0_256_18744">
<rect width="26" height="26" fill="white" transform="translate(5 5)"/>
</clipPath>
</defs>
</svg>
