<svg width="45" height="45" viewBox="0 0 45 45" fill="none" xmlns="http://www.w3.org/2000/svg">
<circle cx="18" cy="18" r="18" fill="#252424"/>
<g clip-path="url(#clip0_256_18755)">
<path d="M15.9984 24C15.9984 19.9219 19.0547 16.5609 22.9969 16.0688V15.9984C23.2547 15.6234 23.9953 15 23.9953 13.9969C23.9953 12.9938 22.9969 11.9953 22.9969 11.4984C23.0016 7.5 20.9625 6 18 6C15.1641 6 12.9984 7.5 12.9984 11.4984C12.9984 12 12 12.9984 12 13.9969C12 14.9953 12.7125 15.6562 12.9984 15.9984C12.9984 15.9984 12.9984 16.9969 13.5 18.4969C13.5 18.9984 14.4984 19.4953 15 19.9969C15 20.4984 15 20.9953 14.4984 21.9984L9 23.0016C6.99844 23.4984 6 27 6 30H18.7219C17.0578 28.5328 15.9984 26.3906 15.9984 24ZM24 18C20.6859 18 18 20.6859 18 24C18 27.3141 20.6859 30 24 30C27.3141 30 30 27.3141 30 24C30 20.6859 27.3141 18 24 18ZM27.9984 24.9984H24.9984V27.9984H22.9969V24.9984H19.9969V22.9969H22.9969V19.9969H24.9984V22.9969H27.9984V24.9984Z" fill="white"/>
</g>
<defs>
<clipPath id="clip0_256_18755">
<rect width="24" height="24" fill="white" transform="translate(6 6)"/>
</clipPath>
</defs>
</svg>
