<svg width="36" height="36" viewBox="0 0 57 57" fill="none" xmlns="http://www.w3.org/2000/svg">
<circle cx="28.5" cy="28.5" r="28.5" fill="#252424"/>
<path d="M24.35 27.7254C24.35 27.9309 24.2683 28.1281 24.123 28.2734C23.9777 28.4187 23.7805 28.5004 23.575 28.5004C23.3695 28.5004 23.1723 28.4187 23.027 28.2734C22.8816 28.1281 22.8 27.9309 22.8 27.7254C22.8 27.5198 22.8816 27.3227 23.027 27.1774C23.1723 27.032 23.3695 26.9504 23.575 26.9504C23.7805 26.9504 23.9777 27.032 24.123 27.1774C24.2683 27.3227 24.35 27.5198 24.35 27.7254ZM23.575 34.7004C23.7805 34.7004 23.9777 34.6187 24.123 34.4734C24.2683 34.3281 24.35 34.1309 24.35 33.9254C24.35 33.7198 24.2683 33.5227 24.123 33.3774C23.9777 33.232 23.7805 33.1504 23.575 33.1504C23.3695 33.1504 23.1723 33.232 23.027 33.3774C22.8816 33.5227 22.8 33.7198 22.8 33.9254C22.8 34.1309 22.8816 34.3281 23.027 34.4734C23.1723 34.6187 23.3695 34.7004 23.575 34.7004ZM18.15 22.3004C18.15 21.0671 18.6399 19.8844 19.5119 19.0123C20.384 18.1403 21.5667 17.6504 22.8 17.6504H35.2C36.4333 17.6504 37.616 18.1403 38.488 19.0123C39.3601 19.8844 39.85 21.0671 39.85 22.3004V27.8804C38.6506 27.2669 37.3222 26.9481 35.975 26.9504H28.225C28.0195 26.9504 27.8223 27.032 27.677 27.1774C27.5316 27.3227 27.45 27.5198 27.45 27.7254C27.45 27.9309 27.5316 28.1281 27.677 28.2734C27.8223 28.4187 28.0195 28.5004 28.225 28.5004H31.0723C29.9526 29.2864 29.0387 30.3308 28.4082 31.5449C27.7776 32.7591 27.449 34.1073 27.45 35.4754C27.45 36.8704 27.7848 38.1879 28.38 39.3504H22.8C21.5667 39.3504 20.384 38.8605 19.5119 37.9884C18.6399 37.1164 18.15 35.9336 18.15 34.7004V22.3004ZM22.025 20.7504C21.8195 20.7504 21.6223 20.832 21.477 20.9774C21.3316 21.1227 21.25 21.3198 21.25 21.5254C21.25 21.7309 21.3316 21.9281 21.477 22.0734C21.6223 22.2187 21.8195 22.3004 22.025 22.3004H35.975C36.1805 22.3004 36.3777 22.2187 36.523 22.0734C36.6683 21.9281 36.75 21.7309 36.75 21.5254C36.75 21.3198 36.6683 21.1227 36.523 20.9774C36.3777 20.832 36.1805 20.7504 35.975 20.7504H22.025ZM23.575 30.0504C24.1916 30.0504 24.783 29.8054 25.219 29.3694C25.655 28.9334 25.9 28.342 25.9 27.7254C25.9 27.1088 25.655 26.5174 25.219 26.0814C24.783 25.6453 24.1916 25.4004 23.575 25.4004C22.9584 25.4004 22.367 25.6453 21.931 26.0814C21.4949 26.5174 21.25 27.1088 21.25 27.7254C21.25 28.342 21.4949 28.9334 21.931 29.3694C22.367 29.8054 22.9584 30.0504 23.575 30.0504ZM25.9 33.9254C25.9 33.3088 25.655 32.7174 25.219 32.2814C24.783 31.8453 24.1916 31.6004 23.575 31.6004C22.9584 31.6004 22.367 31.8453 21.931 32.2814C21.4949 32.7174 21.25 33.3088 21.25 33.9254C21.25 34.542 21.4949 35.1334 21.931 35.5694C22.367 36.0054 22.9584 36.2504 23.575 36.2504C24.1916 36.2504 24.783 36.0054 25.219 35.5694C25.655 35.1334 25.9 34.542 25.9 33.9254ZM42.95 35.4754C42.95 37.3253 42.2151 39.0994 40.9071 40.4075C39.599 41.7155 37.8249 42.4504 35.975 42.4504C34.1251 42.4504 32.351 41.7155 31.0429 40.4075C29.7349 39.0994 29 37.3253 29 35.4754C29 33.6255 29.7349 31.8514 31.0429 30.5433C32.351 29.2353 34.1251 28.5004 35.975 28.5004C37.8249 28.5004 39.599 29.2353 40.9071 30.5433C42.2151 31.8514 42.95 33.6255 42.95 35.4754ZM36.75 32.3754C36.75 32.1698 36.6683 31.9727 36.523 31.8274C36.3777 31.682 36.1805 31.6004 35.975 31.6004C35.7695 31.6004 35.5723 31.682 35.427 31.8274C35.2816 31.9727 35.2 32.1698 35.2 32.3754V34.7004H32.875C32.6695 34.7004 32.4723 34.782 32.327 34.9274C32.1816 35.0727 32.1 35.2698 32.1 35.4754C32.1 35.6809 32.1816 35.8781 32.327 36.0234C32.4723 36.1687 32.6695 36.2504 32.875 36.2504H35.2V38.5754C35.2 38.7809 35.2816 38.9781 35.427 39.1234C35.5723 39.2687 35.7695 39.3504 35.975 39.3504C36.1805 39.3504 36.3777 39.2687 36.523 39.1234C36.6683 38.9781 36.75 38.7809 36.75 38.5754V36.2504H39.075C39.2805 36.2504 39.4777 36.1687 39.623 36.0234C39.7683 35.8781 39.85 35.6809 39.85 35.4754C39.85 35.2698 39.7683 35.0727 39.623 34.9274C39.4777 34.782 39.2805 34.7004 39.075 34.7004H36.75V32.3754Z" fill="white"/>
</svg>
