<svg width="63" height="53" viewBox="0 0 63 53" fill="none" xmlns="http://www.w3.org/2000/svg">
<path d="M61.4381 45.6206C60.2468 44.4477 45.8107 38.8637 43.1912 37.8104C40.5854 36.7754 39.5459 33.9075 39.5459 33.9075C39.5459 33.9075 38.373 34.5561 38.373 32.7346C38.373 30.9108 39.5459 33.9075 40.7188 26.8746C40.7188 26.8746 43.9731 25.9615 43.3269 18.4112H42.5449C42.5449 18.4112 44.4998 10.3387 42.5449 7.60648C40.5831 4.87426 39.815 3.05279 35.5074 1.74647C31.2067 0.44246 32.7706 0.702343 29.6474 0.835734C26.5196 0.966825 23.9162 2.65951 23.9162 3.56795C23.9162 3.56795 21.9613 3.69904 21.1839 4.48099C20.402 5.26294 19.1003 8.90589 19.1003 9.81663C19.1003 10.7274 19.7511 16.8542 20.402 18.1513L19.6269 18.4043C18.9761 25.9569 22.2304 26.8723 22.2304 26.8723C23.4033 33.9052 24.5762 30.9085 24.5762 32.7323C24.5762 34.5538 23.4033 33.9052 23.4033 33.9052C23.4033 33.9052 22.3615 36.7708 19.758 37.8081C17.1546 38.8499 2.70238 44.4477 1.52716 45.6183C0.354241 46.8143 0.485332 52.2787 0.485332 52.2787H28.1663L30.1855 44.3212L28.3917 42.5273L31.4804 39.434L34.569 42.525L32.7752 44.3189L34.7944 52.2764H62.4754C62.4754 52.2764 62.6203 46.8073 61.4335 45.6137L61.4381 45.6206Z" fill="white"/>
</svg>
