<svg width="26" height="25" viewBox="0 0 26 25" fill="none" xmlns="http://www.w3.org/2000/svg">
<path d="M13.1226 2.89999C8.85782 2.89999 5.40056 6.12354 5.40056 10.1V14.4029L4.49052 15.2515C4.12244 15.5947 4.01233 16.1108 4.21153 16.5592C4.41073 17.0076 4.88002 17.3 5.40056 17.3H20.8446C21.3651 17.3 21.8344 17.0076 22.0336 16.5592C22.2328 16.1108 22.1227 15.5947 21.7546 15.2515L20.8446 14.4029V10.1C20.8446 6.12354 17.3873 2.89999 13.1226 2.89999Z" fill="black"/>
<path d="M13.1225 22.1C10.9902 22.1 9.26153 20.4882 9.26153 18.5H16.9835C16.9835 20.4882 15.2549 22.1 13.1225 22.1Z" fill="black"/>
</svg>
