<svg width="21" height="24" viewBox="0 0 21 24" fill="none" xmlns="http://www.w3.org/2000/svg">
<path fill-rule="evenodd" clip-rule="evenodd" d="M10.2713 0.67749C8.56869 0.67749 6.93585 1.35383 5.73196 2.55773C4.52806 3.76162 3.85172 5.39446 3.85172 7.09702C3.85172 8.79959 4.52806 10.4324 5.73196 11.6363C5.81664 11.721 5.90345 11.8031 5.99226 11.8825C4.89257 12.3864 3.88018 13.0853 3.00838 13.9571C1.08215 15.8834 0 18.4959 0 21.22V22.5039C0 23.213 0.574824 23.7878 1.28391 23.7878C1.99299 23.7878 2.56781 23.213 2.56781 22.5039V21.22C2.56781 19.1769 3.37942 17.2175 4.8241 15.7728C6.26877 14.3282 8.22817 13.5166 10.2713 13.5166C12.3143 13.5166 14.2737 14.3282 15.7184 15.7728C17.1631 17.2175 17.9747 19.1769 17.9747 21.22V22.5039C17.9747 23.213 18.5495 23.7878 19.2586 23.7878C19.9677 23.7878 20.5425 23.213 20.5425 22.5039V21.22C20.5425 18.4959 19.4604 15.8834 17.5341 13.9571C16.6623 13.0853 15.6499 12.3864 14.5502 11.8825C14.639 11.8031 14.7259 11.721 14.8105 11.6363C16.0144 10.4324 16.6908 8.79959 16.6908 7.09702C16.6908 5.39446 16.0144 3.76162 14.8105 2.55773C13.6066 1.35383 11.9738 0.67749 10.2713 0.67749ZM7.54767 4.37344C8.27001 3.65111 9.24971 3.2453 10.2713 3.2453C11.2928 3.2453 12.2725 3.65111 12.9948 4.37344C13.7172 5.09578 14.123 6.07548 14.123 7.09702C14.123 8.11856 13.7172 9.09826 12.9948 9.8206C12.2725 10.5429 11.2928 10.9487 10.2713 10.9487C9.24971 10.9487 8.27001 10.5429 7.54767 9.8206C6.82534 9.09826 6.41953 8.11856 6.41953 7.09702C6.41953 6.07548 6.82534 5.09578 7.54767 4.37344Z" fill="#8A8C91"/>
</svg>
