<svg width="21" height="21" viewBox="0 0 21 21" fill="none" xmlns="http://www.w3.org/2000/svg">
<path d="M18.5319 9.48365V3.68583C18.5319 2.4069 17.9863 1.89532 16.6306 1.89532H13.186C11.8303 1.89532 11.2847 2.4069 11.2847 3.68583V9.48365C11.2847 10.7626 11.8303 11.2742 13.186 11.2742H16.6306C17.9863 11.2742 18.5319 10.7626 18.5319 9.48365Z" fill="#8A8C91"/>
<path d="M9.57943 11.3594V17.1572C9.57943 18.4362 9.03376 18.9477 7.67809 18.9477H4.2335C2.87783 18.9477 2.33215 18.4362 2.33215 17.1572V11.3594C2.33215 10.0805 2.87783 9.56891 4.2335 9.56891H7.67809C9.03376 9.56891 9.57943 10.0805 9.57943 11.3594Z" fill="#8A8C91"/>
<path d="M18.5319 17.1573V14.7699C18.5319 13.491 17.9863 12.9794 16.6306 12.9794H13.186C11.8303 12.9794 11.2847 13.491 11.2847 14.7699V17.1573C11.2847 18.4362 11.8303 18.9478 13.186 18.9478H16.6306C17.9863 18.9478 18.5319 18.4362 18.5319 17.1573Z" fill="#8A8C91"/>
<path d="M9.57943 6.07317V3.68583C9.57943 2.4069 9.03376 1.89532 7.67809 1.89532H4.2335C2.87783 1.89532 2.33215 2.4069 2.33215 3.68583V6.07317C2.33215 7.3521 2.87783 7.86367 4.2335 7.86367H7.67809C9.03376 7.86367 9.57943 7.3521 9.57943 6.07317Z" fill="#8A8C91"/>
</svg>
