<svg xmlns="http://www.w3.org/2000/svg" xmlns:xlink="http://www.w3.org/1999/xlink" viewBox="0 0 500 500" width="500" height="500" preserveAspectRatio="xMidYMid meet" style="width: 100%; height: 100%; transform: translate3d(0px, 0px, 0px); content-visibility: visible;" id="Circle Loader"><defs><clipPath id="__lottie_element_2"><rect width="500" height="500" x="0" y="0"/></clipPath></defs><g clip-path="url(#__lottie_element_2)"><g transform="matrix(2.809999942779541,0,0,2.809999942779541,250,250)" opacity="1" style="display: block;"><g opacity="1" transform="matrix(0.153329998254776,0,0,0.153329998254776,0,0)"><path stroke-linecap="round" stroke-linejoin="miter" fill-opacity="0" stroke-miterlimit="4" stroke="rgb(209,209,209)" stroke-opacity="1" stroke-width="25" d=" M0,-250 C137.97500610351562,-250 250,-137.97500610351562 250,0 C250,137.97500610351562 137.97500610351562,250 0,250 C-137.97500610351562,250 -250,137.97500610351562 -250,0 C-250,-137.97500610351562 -137.97500610351562,-250 0,-250z"/></g></g><g transform="matrix(2.7485947608947754,0.5842318534851074,-0.5842318534851074,2.7485947608947754,250,250)" opacity="1" style="display: block;"><g opacity="1" transform="matrix(0.153329998254776,0,0,0.153329998254776,0,0)"><path stroke-linecap="round" stroke-linejoin="miter" fill-opacity="0" stroke-miterlimit="4" stroke="rgb(0,0,0)" stroke-opacity="1" stroke-width="25" d=" M0,-250 C2.680000066757202,-250 5.349999904632568,-249.95799255371094 8.010000228881836,-249.87399291992188"/></g></g></g></svg>