<svg width="25" height="24" viewBox="0 0 25 24" fill="none" xmlns="http://www.w3.org/2000/svg">
<path d="M4.1123 12C4.1123 12.2652 4.21766 12.5196 4.4052 12.7071C4.59273 12.8946 4.84709 13 5.1123 13H12.7023L10.4023 15.29C10.3086 15.383 10.2342 15.4936 10.1834 15.6154C10.1326 15.7373 10.1065 15.868 10.1065 16C10.1065 16.132 10.1326 16.2627 10.1834 16.3846C10.2342 16.5064 10.3086 16.617 10.4023 16.71C10.4953 16.8037 10.6059 16.8781 10.7277 16.9289C10.8496 16.9797 10.9803 17.0058 11.1123 17.0058C11.2443 17.0058 11.375 16.9797 11.4969 16.9289C11.6187 16.8781 11.7293 16.8037 11.8223 16.71L15.8223 12.71C15.9133 12.6149 15.9847 12.5028 16.0323 12.38C16.1323 12.1365 16.1323 11.8635 16.0323 11.62C15.9847 11.4972 15.9133 11.3851 15.8223 11.29L11.8223 7.29C11.7291 7.19676 11.6184 7.1228 11.4966 7.07234C11.3747 7.02188 11.2442 6.99591 11.1123 6.99591C10.9804 6.99591 10.8499 7.02188 10.7281 7.07234C10.6062 7.1228 10.4955 7.19676 10.4023 7.29C10.3091 7.38324 10.2351 7.49393 10.1846 7.61575C10.1342 7.73757 10.1082 7.86814 10.1082 8C10.1082 8.13186 10.1342 8.26243 10.1846 8.38425C10.2351 8.50607 10.3091 8.61676 10.4023 8.71L12.7023 11H5.1123C4.84709 11 4.59273 11.1054 4.4052 11.2929C4.21766 11.4804 4.1123 11.7348 4.1123 12ZM17.1123 2H7.1123C6.31666 2 5.55359 2.31607 4.99098 2.87868C4.42838 3.44129 4.1123 4.20435 4.1123 5V8C4.1123 8.26522 4.21766 8.51957 4.4052 8.70711C4.59273 8.89464 4.84709 9 5.1123 9C5.37752 9 5.63187 8.89464 5.81941 8.70711C6.00695 8.51957 6.1123 8.26522 6.1123 8V5C6.1123 4.73478 6.21766 4.48043 6.4052 4.29289C6.59273 4.10536 6.84709 4 7.1123 4H17.1123C17.3775 4 17.6319 4.10536 17.8194 4.29289C18.0069 4.48043 18.1123 4.73478 18.1123 5V19C18.1123 19.2652 18.0069 19.5196 17.8194 19.7071C17.6319 19.8946 17.3775 20 17.1123 20H7.1123C6.84709 20 6.59273 19.8946 6.4052 19.7071C6.21766 19.5196 6.1123 19.2652 6.1123 19V16C6.1123 15.7348 6.00695 15.4804 5.81941 15.2929C5.63187 15.1054 5.37752 15 5.1123 15C4.84709 15 4.59273 15.1054 4.4052 15.2929C4.21766 15.4804 4.1123 15.7348 4.1123 16V19C4.1123 19.7956 4.42838 20.5587 4.99098 21.1213C5.55359 21.6839 6.31666 22 7.1123 22H17.1123C17.908 22 18.671 21.6839 19.2336 21.1213C19.7962 20.5587 20.1123 19.7956 20.1123 19V5C20.1123 4.20435 19.7962 3.44129 19.2336 2.87868C18.671 2.31607 17.908 2 17.1123 2Z" fill="black"/>
</svg>
