<svg width="30" height="30" viewBox="0 0 57 58" fill="none" xmlns="http://www.w3.org/2000/svg">
<circle cx="28.5" cy="29.3398" r="28.5" fill="#252424"/>
<path fill-rule="evenodd" clip-rule="evenodd" d="M20.2948 15.4526C25.7482 14.8491 31.2518 14.8491 36.7052 15.4526C39.7247 15.7905 42.1607 18.1643 42.5149 21.1892C43.1617 26.7104 43.1617 32.2881 42.5149 37.8094C42.3357 39.2793 41.6643 40.6455 40.6098 41.6868C39.5553 42.728 38.1794 43.3832 36.7052 43.546C31.2519 44.1513 25.7481 44.1513 20.2948 43.546C18.8206 43.3832 17.4447 42.728 16.3902 41.6868C15.3357 40.6455 14.6643 39.2793 14.485 37.8094C13.8383 32.2887 13.8383 26.7116 14.485 21.1909C14.6643 19.7214 15.3353 18.3553 16.3895 17.3141C17.4437 16.2729 18.8191 15.6176 20.293 15.4544L20.2948 15.4526ZM28.5 20.7141C28.8506 20.7141 29.1869 20.8531 29.4348 21.1006C29.6827 21.3481 29.822 21.6838 29.822 22.0338V28.1804H35.979C36.3296 28.1804 36.6659 28.3195 36.9138 28.567C37.1617 28.8145 37.301 29.1502 37.301 29.5002C37.301 29.8502 37.1617 30.1859 36.9138 30.4334C36.6659 30.6809 36.3296 30.8199 35.979 30.8199H29.822V36.9665C29.822 37.3166 29.6827 37.6522 29.4348 37.8997C29.1869 38.1472 28.8506 38.2863 28.5 38.2863C28.1494 38.2863 27.8131 38.1472 27.5652 37.8997C27.3173 37.6522 27.178 37.3166 27.178 36.9665V30.8199H21.021C20.6704 30.8199 20.3341 30.6809 20.0862 30.4334C19.8383 30.1859 19.699 29.8502 19.699 29.5002C19.699 29.1502 19.8383 28.8145 20.0862 28.567C20.3341 28.3195 20.6704 28.1804 21.021 28.1804H27.178V22.0338C27.178 21.6838 27.3173 21.3481 27.5652 21.1006C27.8131 20.8531 28.1494 20.7141 28.5 20.7141Z" fill="white"/>
</svg>
