<svg width="25" height="22" viewBox="0 0 30 22" fill="none" xmlns="http://www.w3.org/2000/svg">
<path d="M24 4.88889H6V0H24V4.88889ZM24 11.6111C24.425 11.6111 24.7815 11.4938 25.0695 11.2591C25.3575 11.0244 25.501 10.7344 25.5 10.3889C25.5 10.0426 25.356 9.75211 25.068 9.51744C24.78 9.28278 24.424 9.16585 24 9.16667C23.575 9.16667 23.2185 9.284 22.9305 9.51867C22.6425 9.75333 22.499 10.0434 22.5 10.3889C22.5 10.7352 22.644 11.0257 22.932 11.2603C23.22 11.495 23.576 11.6119 24 11.6111ZM21 19.5556V14.6667H9V19.5556H21ZM24 22H6V17.1111H0V9.77778C0 8.73889 0.4375 7.86785 1.3125 7.16467C2.1875 6.46148 3.25 6.1103 4.5 6.11111H25.5C26.775 6.11111 27.844 6.4627 28.707 7.16589C29.57 7.86907 30.001 8.7397 30 9.77778V17.1111H24V22Z" fill="white"/>
</svg>
