<svg width="19" height="20" viewBox="0 0 19 20" fill="none" xmlns="http://www.w3.org/2000/svg">
<g clip-path="url(#clip0_483_711)">
<path d="M16.0312 0.950195H1.78125C0.801562 0.950195 0 1.75176 0 2.73145V18.1689C0 19.1486 0.801562 19.9502 1.78125 19.9502H16.0312C17.0109 19.9502 17.8125 19.1486 17.8125 18.1689V2.73145C17.8125 1.75176 17.0109 0.950195 16.0312 0.950195ZM15.4375 17.5752H2.375V3.3252H15.4375V17.5752ZM4.75 11.6377H13.0625V12.8252H4.75V11.6377ZM4.75 14.0127H13.0625V15.2002H4.75V14.0127ZM5.9375 6.29395C5.93758 6.05995 5.98374 5.82826 6.07336 5.61211C6.16298 5.39596 6.2943 5.19957 6.45981 5.03417C6.62532 4.86876 6.8218 4.73758 7.03801 4.6481C7.25422 4.55863 7.48594 4.51262 7.71994 4.5127C7.95393 4.51277 8.18562 4.55894 8.40177 4.64856C8.61793 4.73818 8.81431 4.86949 8.97972 5.03501C9.14512 5.20052 9.27631 5.39699 9.36578 5.61321C9.45525 5.82942 9.50127 6.06114 9.50119 6.29513C9.50103 6.76771 9.31315 7.22086 8.97888 7.55491C8.64461 7.88896 8.19132 8.07654 7.71875 8.07638C7.24618 8.07623 6.79302 7.88834 6.45897 7.55407C6.12492 7.2198 5.93734 6.76652 5.9375 6.29395ZM8.90625 8.0752H6.53125C5.55156 8.0752 4.75 8.60957 4.75 9.2627V10.4502H10.6875V9.2627C10.6875 8.60957 9.88594 8.0752 8.90625 8.0752Z" fill="#878484"/>
</g>
<defs>
<clipPath id="clip0_483_711">
<rect width="19" height="19" fill="white" transform="translate(0 0.950195)"/>
</clipPath>
</defs>
</svg>
