<svg width="25" height="22" viewBox="0 0 30 30" fill="none" xmlns="http://www.w3.org/2000/svg">
<path d="M23.4375 26.7188C25.2497 26.7188 26.7188 25.2497 26.7188 23.4375C26.7188 21.6253 25.2497 20.1562 23.4375 20.1562C21.6253 20.1562 20.1562 21.6253 20.1562 23.4375C20.1562 25.2497 21.6253 26.7188 23.4375 26.7188Z" stroke="white" stroke-width="3" stroke-linecap="round" stroke-linejoin="round"/>
<path d="M6.5625 26.7188C8.37468 26.7188 9.84375 25.2497 9.84375 23.4375C9.84375 21.6253 8.37468 20.1562 6.5625 20.1562C4.75032 20.1562 3.28125 21.6253 3.28125 23.4375C3.28125 25.2497 4.75032 26.7188 6.5625 26.7188Z" stroke="white" stroke-width="3" stroke-linecap="round" stroke-linejoin="round"/>
<path d="M6.5625 9.84375C8.37468 9.84375 9.84375 8.37468 9.84375 6.5625C9.84375 4.75032 8.37468 3.28125 6.5625 3.28125C4.75032 3.28125 3.28125 4.75032 3.28125 6.5625C3.28125 8.37468 4.75032 9.84375 6.5625 9.84375Z" stroke="white" stroke-width="3" stroke-linecap="round" stroke-linejoin="round"/>
<path d="M17.3438 3.28125L14.5312 7.03125L17.3438 10.7812M22.9688 19.2188V9.84375C22.9688 7.96875 22.0312 7.03125 20.1562 7.03125H16.4062M7.03125 10.7812V19.2188" stroke="white" stroke-width="3" stroke-linecap="round" stroke-linejoin="round"/>
</svg>
