<svg width="27" height="28" viewBox="0 0 27 28" fill="none" xmlns="http://www.w3.org/2000/svg">
<path d="M3.26733 10.9068V17.191C3.26733 19.4999 3.26733 19.4999 5.44555 20.9702L11.4357 24.4336C12.3396 24.9563 13.8099 24.9563 14.703 24.4336L20.6931 20.9702C22.8713 19.4999 22.8713 19.4999 22.8713 17.2019V10.9068C22.8713 8.60882 22.8713 8.60882 20.6931 7.13853L14.703 3.67516C13.8099 3.15239 12.3396 3.15239 11.4357 3.67516L5.44555 7.13853C3.26733 8.60882 3.26733 8.60882 3.26733 10.9068Z" stroke="#D3D3D3" stroke-width="1.63366" stroke-linecap="round" stroke-linejoin="round"/>
<path d="M13.0693 17.3218C14.8738 17.3218 16.3367 15.8589 16.3367 14.0544C16.3367 12.2499 14.8738 10.7871 13.0693 10.7871C11.2648 10.7871 9.802 12.2499 9.802 14.0544C9.802 15.8589 11.2648 17.3218 13.0693 17.3218Z" stroke="#D3D3D3" stroke-width="1.63366" stroke-linecap="round" stroke-linejoin="round"/>
</svg>
