<svg width="28" height="27" viewBox="0 0 28 27" fill="none" xmlns="http://www.w3.org/2000/svg">
<path d="M4.24487 9.92174V16.2059C4.24487 18.5148 4.24487 18.5148 6.42309 19.9851L12.4132 23.4485C13.3172 23.9712 14.7874 23.9712 15.6805 23.4485L21.6706 19.9851C23.8488 18.5148 23.8488 18.5148 23.8488 16.2168V9.92174C23.8488 7.62372 23.8488 7.62372 21.6706 6.15342L15.6805 2.69005C14.7874 2.16728 13.3172 2.16728 12.4132 2.69005L6.42309 6.15342C4.24487 7.62372 4.24487 7.62372 4.24487 9.92174Z" stroke="black" stroke-width="1.63366" stroke-linecap="round" stroke-linejoin="round"/>
<path d="M14.0469 16.3366C15.8514 16.3366 17.3142 14.8738 17.3142 13.0693C17.3142 11.2648 15.8514 9.80194 14.0469 9.80194C12.2424 9.80194 10.7795 11.2648 10.7795 13.0693C10.7795 14.8738 12.2424 16.3366 14.0469 16.3366Z" stroke="black" stroke-width="1.63366" stroke-linecap="round" stroke-linejoin="round"/>
</svg>
