<svg width="22" height="22" viewBox="0 0 22 22" fill="none" xmlns="http://www.w3.org/2000/svg">
<path d="M5.62496 3.5H3.47996C2.91107 3.5 2.36548 3.71071 1.96322 4.08579C1.56095 4.46086 1.33496 4.96957 1.33496 5.5V17.5C1.33496 18.0304 1.56095 18.5391 1.96322 18.9142C2.36548 19.2893 2.91107 19.5 3.47996 19.5H9.58999M16.35 12.5V16.5H20.64M16.35 9.5V5.5C16.35 4.96957 16.124 4.46086 15.7217 4.08579C15.3194 3.71071 14.7739 3.5 14.205 3.5H12.06" stroke="black" stroke-width="2" stroke-linecap="round" stroke-linejoin="round"/>
<path d="M5.625 9.5H9.915M5.625 13.5H8.8425M5.625 3.5C5.625 2.96957 5.85099 2.46086 6.25326 2.08579C6.65552 1.71071 7.20111 1.5 7.77 1.5H9.915C10.4839 1.5 11.0295 1.71071 11.4317 2.08579C11.834 2.46086 12.06 2.96957 12.06 3.5C12.06 4.03043 11.834 4.53914 11.4317 4.91421C11.0295 5.28929 10.4839 5.5 9.915 5.5H7.77C7.20111 5.5 6.65552 5.28929 6.25326 4.91421C5.85099 4.53914 5.625 4.03043 5.625 3.5ZM12.06 16.5C12.06 17.5609 12.512 18.5783 13.3165 19.3284C14.121 20.0786 15.2122 20.5 16.35 20.5C17.4878 20.5 18.579 20.0786 19.3835 19.3284C20.188 18.5783 20.64 17.5609 20.64 16.5C20.64 15.4391 20.188 14.4217 19.3835 13.6716C18.579 12.9214 17.4878 12.5 16.35 12.5C15.2122 12.5 14.121 12.9214 13.3165 13.6716C12.512 14.4217 12.06 15.4391 12.06 16.5Z" stroke="black" stroke-width="2" stroke-linecap="round" stroke-linejoin="round"/>
</svg>
